<mxfile host="app.diagrams.net" modified="2022-11-05T01:26:49.622Z" agent="5.0 (Macintosh; Intel Mac OS X 10_15_7) AppleWebKit/537.36 (KHTML, like Gecko) Chrome/107.0.0.0 Safari/537.36" etag="TqAW2P85Tr57BDGOFNRd" version="20.4.1" type="github">
  <diagram id="yorWovq_tISe7ccQDG3e" name="Page-1">
    <mxGraphModel dx="1428" dy="700" grid="1" gridSize="10" guides="1" tooltips="1" connect="1" arrows="1" fold="1" page="1" pageScale="1" pageWidth="827" pageHeight="1169" math="0" shadow="0">
      <root>
        <mxCell id="0" />
        <mxCell id="1" parent="0" />
        <mxCell id="5rIF5Xdq-ZtbnCXGbU9Z-1" value="学生" style="shape=umlActor;verticalLabelPosition=bottom;verticalAlign=top;html=1;outlineConnect=0;fillColor=#d5e8d4;strokeColor=#82b366;fontStyle=1;fontSize=15;" parent="1" vertex="1">
          <mxGeometry x="250" y="30" width="30" height="60" as="geometry" />
        </mxCell>
        <mxCell id="5rIF5Xdq-ZtbnCXGbU9Z-2" value="辅导员" style="shape=umlActor;verticalLabelPosition=bottom;verticalAlign=top;html=1;outlineConnect=0;fillColor=#dae8fc;strokeColor=#6c8ebf;fontStyle=1;fontSize=15;" parent="1" vertex="1">
          <mxGeometry x="330" y="30" width="30" height="60" as="geometry" />
        </mxCell>
        <mxCell id="5rIF5Xdq-ZtbnCXGbU9Z-3" value="教职工" style="shape=umlActor;verticalLabelPosition=bottom;verticalAlign=top;html=1;outlineConnect=0;fillColor=#f8cecc;strokeColor=#b85450;fontStyle=1;fontSize=15;" parent="1" vertex="1">
          <mxGeometry x="410" y="30" width="30" height="60" as="geometry" />
        </mxCell>
        <mxCell id="5rIF5Xdq-ZtbnCXGbU9Z-4" value="管理员" style="shape=umlActor;verticalLabelPosition=bottom;verticalAlign=top;html=1;outlineConnect=0;fillColor=#fff2cc;strokeColor=#d6b656;fontStyle=1;fontSize=15;" parent="1" vertex="1">
          <mxGeometry x="490" y="30" width="30" height="60" as="geometry" />
        </mxCell>
        <mxCell id="5rIF5Xdq-ZtbnCXGbU9Z-7" style="edgeStyle=orthogonalEdgeStyle;rounded=0;orthogonalLoop=1;jettySize=auto;html=1;exitX=0.5;exitY=0;exitDx=0;exitDy=0;entryX=0.5;entryY=1;entryDx=0;entryDy=0;fontSize=14;" parent="1" source="5rIF5Xdq-ZtbnCXGbU9Z-5" target="5rIF5Xdq-ZtbnCXGbU9Z-6" edge="1">
          <mxGeometry relative="1" as="geometry" />
        </mxCell>
        <mxCell id="5rIF5Xdq-ZtbnCXGbU9Z-26" style="edgeStyle=orthogonalEdgeStyle;rounded=0;orthogonalLoop=1;jettySize=auto;html=1;exitX=1;exitY=0.5;exitDx=0;exitDy=0;entryX=0;entryY=0.5;entryDx=0;entryDy=0;fontSize=16;" parent="1" source="5rIF5Xdq-ZtbnCXGbU9Z-5" target="5rIF5Xdq-ZtbnCXGbU9Z-11" edge="1">
          <mxGeometry relative="1" as="geometry" />
        </mxCell>
        <mxCell id="5rIF5Xdq-ZtbnCXGbU9Z-27" style="edgeStyle=orthogonalEdgeStyle;rounded=0;orthogonalLoop=1;jettySize=auto;html=1;exitX=1;exitY=0.5;exitDx=0;exitDy=0;entryX=0;entryY=0.5;entryDx=0;entryDy=0;fontSize=16;" parent="1" source="5rIF5Xdq-ZtbnCXGbU9Z-5" target="5rIF5Xdq-ZtbnCXGbU9Z-8" edge="1">
          <mxGeometry relative="1" as="geometry" />
        </mxCell>
        <mxCell id="5rIF5Xdq-ZtbnCXGbU9Z-28" style="edgeStyle=orthogonalEdgeStyle;rounded=0;orthogonalLoop=1;jettySize=auto;html=1;exitX=1;exitY=0.5;exitDx=0;exitDy=0;entryX=0;entryY=0.5;entryDx=0;entryDy=0;fontSize=16;" parent="1" source="5rIF5Xdq-ZtbnCXGbU9Z-5" target="5rIF5Xdq-ZtbnCXGbU9Z-9" edge="1">
          <mxGeometry relative="1" as="geometry" />
        </mxCell>
        <mxCell id="5rIF5Xdq-ZtbnCXGbU9Z-29" style="edgeStyle=orthogonalEdgeStyle;rounded=0;orthogonalLoop=1;jettySize=auto;html=1;exitX=1;exitY=0.5;exitDx=0;exitDy=0;entryX=0;entryY=0.5;entryDx=0;entryDy=0;fontSize=16;" parent="1" source="5rIF5Xdq-ZtbnCXGbU9Z-5" target="5rIF5Xdq-ZtbnCXGbU9Z-20" edge="1">
          <mxGeometry relative="1" as="geometry" />
        </mxCell>
        <mxCell id="5rIF5Xdq-ZtbnCXGbU9Z-34" style="edgeStyle=orthogonalEdgeStyle;rounded=0;orthogonalLoop=1;jettySize=auto;html=1;exitX=1;exitY=0.5;exitDx=0;exitDy=0;entryX=0;entryY=0.5;entryDx=0;entryDy=0;fontSize=16;" parent="1" source="5rIF5Xdq-ZtbnCXGbU9Z-5" target="5rIF5Xdq-ZtbnCXGbU9Z-10" edge="1">
          <mxGeometry relative="1" as="geometry" />
        </mxCell>
        <mxCell id="5rIF5Xdq-ZtbnCXGbU9Z-35" style="edgeStyle=orthogonalEdgeStyle;rounded=0;orthogonalLoop=1;jettySize=auto;html=1;exitX=1;exitY=0.5;exitDx=0;exitDy=0;entryX=0;entryY=0.5;entryDx=0;entryDy=0;fontSize=16;" parent="1" source="5rIF5Xdq-ZtbnCXGbU9Z-5" target="5rIF5Xdq-ZtbnCXGbU9Z-13" edge="1">
          <mxGeometry relative="1" as="geometry" />
        </mxCell>
        <mxCell id="5rIF5Xdq-ZtbnCXGbU9Z-36" style="edgeStyle=orthogonalEdgeStyle;rounded=0;orthogonalLoop=1;jettySize=auto;html=1;exitX=1;exitY=0.5;exitDx=0;exitDy=0;entryX=0;entryY=0.5;entryDx=0;entryDy=0;fontSize=16;" parent="1" source="5rIF5Xdq-ZtbnCXGbU9Z-5" target="5rIF5Xdq-ZtbnCXGbU9Z-14" edge="1">
          <mxGeometry relative="1" as="geometry" />
        </mxCell>
        <mxCell id="5rIF5Xdq-ZtbnCXGbU9Z-37" style="edgeStyle=orthogonalEdgeStyle;rounded=0;orthogonalLoop=1;jettySize=auto;html=1;exitX=1;exitY=0.5;exitDx=0;exitDy=0;entryX=0;entryY=0.5;entryDx=0;entryDy=0;fontSize=16;" parent="1" source="5rIF5Xdq-ZtbnCXGbU9Z-5" target="5rIF5Xdq-ZtbnCXGbU9Z-15" edge="1">
          <mxGeometry relative="1" as="geometry" />
        </mxCell>
        <mxCell id="5rIF5Xdq-ZtbnCXGbU9Z-38" style="edgeStyle=orthogonalEdgeStyle;rounded=0;orthogonalLoop=1;jettySize=auto;html=1;exitX=1;exitY=0.5;exitDx=0;exitDy=0;entryX=0;entryY=0.5;entryDx=0;entryDy=0;fontSize=16;" parent="1" source="5rIF5Xdq-ZtbnCXGbU9Z-5" target="5rIF5Xdq-ZtbnCXGbU9Z-17" edge="1">
          <mxGeometry relative="1" as="geometry" />
        </mxCell>
        <mxCell id="PQOv4d-Mpdv5f0DtzdS1-7" style="edgeStyle=orthogonalEdgeStyle;rounded=0;orthogonalLoop=1;jettySize=auto;html=1;exitX=1;exitY=0.5;exitDx=0;exitDy=0;entryX=0;entryY=0.5;entryDx=0;entryDy=0;" parent="1" source="5rIF5Xdq-ZtbnCXGbU9Z-5" target="PQOv4d-Mpdv5f0DtzdS1-4" edge="1">
          <mxGeometry relative="1" as="geometry" />
        </mxCell>
        <mxCell id="5rIF5Xdq-ZtbnCXGbU9Z-5" value="校园疫情防控&lt;br style=&quot;font-size: 16px;&quot;&gt;健康打卡&lt;br style=&quot;font-size: 16px;&quot;&gt;人员管理系统" style="rounded=1;whiteSpace=wrap;html=1;fontSize=16;fillColor=#1ba1e2;strokeColor=#006EAF;fontColor=#ffffff;fontStyle=1" parent="1" vertex="1">
          <mxGeometry x="100" y="330" width="120" height="70" as="geometry" />
        </mxCell>
        <mxCell id="5rIF5Xdq-ZtbnCXGbU9Z-6" value="登录" style="rounded=1;whiteSpace=wrap;html=1;fontSize=14;fillColor=#f5f5f5;fontColor=#333333;strokeColor=#666666;fontStyle=1" parent="1" vertex="1">
          <mxGeometry x="125" y="260" width="70" height="30" as="geometry" />
        </mxCell>
        <mxCell id="5rIF5Xdq-ZtbnCXGbU9Z-8" value="用户管理" style="rounded=1;whiteSpace=wrap;html=1;fontSize=14;fillColor=#f5f5f5;fontColor=#333333;strokeColor=#666666;fontStyle=1" parent="1" vertex="1">
          <mxGeometry x="280" y="250" width="100" height="30" as="geometry" />
        </mxCell>
        <mxCell id="5rIF5Xdq-ZtbnCXGbU9Z-9" value="权限管理" style="rounded=1;whiteSpace=wrap;html=1;fontSize=14;fillColor=#f5f5f5;fontColor=#333333;strokeColor=#666666;fontStyle=1" parent="1" vertex="1">
          <mxGeometry x="280" y="290" width="100" height="30" as="geometry" />
        </mxCell>
        <mxCell id="5rIF5Xdq-ZtbnCXGbU9Z-10" value="通知管理" style="rounded=1;whiteSpace=wrap;html=1;fontSize=14;fillColor=#f5f5f5;fontColor=#333333;strokeColor=#666666;fontStyle=1" parent="1" vertex="1">
          <mxGeometry x="280" y="330" width="100" height="30" as="geometry" />
        </mxCell>
        <mxCell id="5rIF5Xdq-ZtbnCXGbU9Z-23" style="edgeStyle=orthogonalEdgeStyle;rounded=0;orthogonalLoop=1;jettySize=auto;html=1;exitX=1;exitY=0.5;exitDx=0;exitDy=0;entryX=0;entryY=0.5;entryDx=0;entryDy=0;fontSize=16;" parent="1" source="5rIF5Xdq-ZtbnCXGbU9Z-11" target="5rIF5Xdq-ZtbnCXGbU9Z-12" edge="1">
          <mxGeometry relative="1" as="geometry" />
        </mxCell>
        <mxCell id="5rIF5Xdq-ZtbnCXGbU9Z-25" style="edgeStyle=orthogonalEdgeStyle;rounded=0;orthogonalLoop=1;jettySize=auto;html=1;exitX=1;exitY=0.5;exitDx=0;exitDy=0;entryX=0;entryY=0.5;entryDx=0;entryDy=0;fontSize=16;" parent="1" source="5rIF5Xdq-ZtbnCXGbU9Z-11" target="5rIF5Xdq-ZtbnCXGbU9Z-22" edge="1">
          <mxGeometry relative="1" as="geometry" />
        </mxCell>
        <mxCell id="5rIF5Xdq-ZtbnCXGbU9Z-11" value="个人信息" style="rounded=1;whiteSpace=wrap;html=1;fontSize=14;fillColor=#f5f5f5;fontColor=#333333;strokeColor=#666666;fontStyle=1" parent="1" vertex="1">
          <mxGeometry x="280" y="210" width="100" height="30" as="geometry" />
        </mxCell>
        <mxCell id="5rIF5Xdq-ZtbnCXGbU9Z-12" value="头像等信息修改" style="rounded=1;whiteSpace=wrap;html=1;fontSize=14;fillColor=#f5f5f5;fontColor=#333333;strokeColor=#666666;fontStyle=1" parent="1" vertex="1">
          <mxGeometry x="435" y="190" width="120" height="30" as="geometry" />
        </mxCell>
        <mxCell id="5rIF5Xdq-ZtbnCXGbU9Z-13" value="日志管理" style="rounded=1;whiteSpace=wrap;html=1;fontSize=14;fillColor=#f5f5f5;fontColor=#333333;strokeColor=#666666;fontStyle=1" parent="1" vertex="1">
          <mxGeometry x="280" y="370" width="100" height="30" as="geometry" />
        </mxCell>
        <mxCell id="W1u-YwrRw44qgqtMoDbP-12" style="edgeStyle=orthogonalEdgeStyle;rounded=0;orthogonalLoop=1;jettySize=auto;html=1;exitX=1;exitY=0.5;exitDx=0;exitDy=0;entryX=0;entryY=0.5;entryDx=0;entryDy=0;" parent="1" source="5rIF5Xdq-ZtbnCXGbU9Z-14" target="W1u-YwrRw44qgqtMoDbP-11" edge="1">
          <mxGeometry relative="1" as="geometry" />
        </mxCell>
        <mxCell id="5rIF5Xdq-ZtbnCXGbU9Z-14" value="学院管理" style="rounded=1;whiteSpace=wrap;html=1;fontSize=14;fillColor=#f5f5f5;fontColor=#333333;strokeColor=#666666;fontStyle=1" parent="1" vertex="1">
          <mxGeometry x="280" y="410" width="100" height="30" as="geometry" />
        </mxCell>
        <mxCell id="5rIF5Xdq-ZtbnCXGbU9Z-33" style="edgeStyle=orthogonalEdgeStyle;rounded=0;orthogonalLoop=1;jettySize=auto;html=1;exitX=1;exitY=0.5;exitDx=0;exitDy=0;entryX=0;entryY=0.5;entryDx=0;entryDy=0;fontSize=16;" parent="1" source="5rIF5Xdq-ZtbnCXGbU9Z-15" target="5rIF5Xdq-ZtbnCXGbU9Z-16" edge="1">
          <mxGeometry relative="1" as="geometry" />
        </mxCell>
        <mxCell id="5rIF5Xdq-ZtbnCXGbU9Z-15" value="离校管理" style="rounded=1;whiteSpace=wrap;html=1;fontSize=14;fillColor=#dae8fc;strokeColor=#6c8ebf;fontStyle=1" parent="1" vertex="1">
          <mxGeometry x="280" y="500" width="100" height="30" as="geometry" />
        </mxCell>
        <mxCell id="W1u-YwrRw44qgqtMoDbP-5" style="edgeStyle=orthogonalEdgeStyle;rounded=0;orthogonalLoop=1;jettySize=auto;html=1;exitX=1;exitY=0.5;exitDx=0;exitDy=0;entryX=0;entryY=0.5;entryDx=0;entryDy=0;" parent="1" source="5rIF5Xdq-ZtbnCXGbU9Z-16" target="W1u-YwrRw44qgqtMoDbP-4" edge="1">
          <mxGeometry relative="1" as="geometry" />
        </mxCell>
        <mxCell id="5rIF5Xdq-ZtbnCXGbU9Z-16" value="请假/审批" style="rounded=1;whiteSpace=wrap;html=1;fontSize=14;fillColor=#dae8fc;strokeColor=#6c8ebf;fontStyle=1" parent="1" vertex="1">
          <mxGeometry x="415" y="500" width="100" height="30" as="geometry" />
        </mxCell>
        <mxCell id="5rIF5Xdq-ZtbnCXGbU9Z-31" style="edgeStyle=orthogonalEdgeStyle;rounded=0;orthogonalLoop=1;jettySize=auto;html=1;exitX=1;exitY=0.5;exitDx=0;exitDy=0;entryX=0;entryY=0.5;entryDx=0;entryDy=0;fontSize=16;" parent="1" source="5rIF5Xdq-ZtbnCXGbU9Z-17" target="5rIF5Xdq-ZtbnCXGbU9Z-19" edge="1">
          <mxGeometry relative="1" as="geometry" />
        </mxCell>
        <mxCell id="W1u-YwrRw44qgqtMoDbP-9" style="edgeStyle=orthogonalEdgeStyle;rounded=0;orthogonalLoop=1;jettySize=auto;html=1;exitX=1;exitY=0.5;exitDx=0;exitDy=0;entryX=0;entryY=0.5;entryDx=0;entryDy=0;" parent="1" source="5rIF5Xdq-ZtbnCXGbU9Z-17" target="W1u-YwrRw44qgqtMoDbP-7" edge="1">
          <mxGeometry relative="1" as="geometry">
            <Array as="points">
              <mxPoint x="390" y="555" />
              <mxPoint x="390" y="595" />
            </Array>
          </mxGeometry>
        </mxCell>
        <mxCell id="W1u-YwrRw44qgqtMoDbP-10" style="edgeStyle=orthogonalEdgeStyle;rounded=0;orthogonalLoop=1;jettySize=auto;html=1;exitX=1;exitY=0.25;exitDx=0;exitDy=0;entryX=0;entryY=0.5;entryDx=0;entryDy=0;" parent="1" source="5rIF5Xdq-ZtbnCXGbU9Z-17" target="W1u-YwrRw44qgqtMoDbP-6" edge="1">
          <mxGeometry relative="1" as="geometry">
            <Array as="points">
              <mxPoint x="380" y="555" />
              <mxPoint x="390" y="555" />
              <mxPoint x="390" y="645" />
            </Array>
          </mxGeometry>
        </mxCell>
        <mxCell id="5rIF5Xdq-ZtbnCXGbU9Z-17" value="每日健康打卡" style="rounded=1;whiteSpace=wrap;html=1;fontSize=14;fillColor=#f5f5f5;fontColor=#333333;strokeColor=#666666;fontStyle=1" parent="1" vertex="1">
          <mxGeometry x="280" y="540" width="100" height="30" as="geometry" />
        </mxCell>
        <mxCell id="5rIF5Xdq-ZtbnCXGbU9Z-18" value="百度地图API" style="rounded=1;whiteSpace=wrap;html=1;fontSize=14;fillColor=#fff2cc;strokeColor=#d6b656;fontStyle=1" parent="1" vertex="1">
          <mxGeometry x="545" y="540" width="100" height="30" as="geometry" />
        </mxCell>
        <mxCell id="5rIF5Xdq-ZtbnCXGbU9Z-32" style="edgeStyle=orthogonalEdgeStyle;rounded=0;orthogonalLoop=1;jettySize=auto;html=1;exitX=1;exitY=0.5;exitDx=0;exitDy=0;entryX=0;entryY=0.5;entryDx=0;entryDy=0;fontSize=16;" parent="1" source="5rIF5Xdq-ZtbnCXGbU9Z-19" target="5rIF5Xdq-ZtbnCXGbU9Z-18" edge="1">
          <mxGeometry relative="1" as="geometry" />
        </mxCell>
        <mxCell id="5rIF5Xdq-ZtbnCXGbU9Z-19" value="自动获取地址" style="rounded=1;whiteSpace=wrap;html=1;fontSize=14;fillColor=#fff2cc;strokeColor=#d6b656;fontStyle=1" parent="1" vertex="1">
          <mxGeometry x="415" y="540" width="100" height="30" as="geometry" />
        </mxCell>
        <mxCell id="5rIF5Xdq-ZtbnCXGbU9Z-30" style="edgeStyle=orthogonalEdgeStyle;rounded=0;orthogonalLoop=1;jettySize=auto;html=1;exitX=1;exitY=0.5;exitDx=0;exitDy=0;entryX=0;entryY=0.5;entryDx=0;entryDy=0;fontSize=16;" parent="1" source="5rIF5Xdq-ZtbnCXGbU9Z-20" target="5rIF5Xdq-ZtbnCXGbU9Z-21" edge="1">
          <mxGeometry relative="1" as="geometry" />
        </mxCell>
        <mxCell id="5rIF5Xdq-ZtbnCXGbU9Z-20" value="疫情地图" style="rounded=1;whiteSpace=wrap;html=1;fontSize=14;fillColor=#fff2cc;strokeColor=#d6b656;fontStyle=1" parent="1" vertex="1">
          <mxGeometry x="280" y="680" width="100" height="30" as="geometry" />
        </mxCell>
        <mxCell id="5rIF5Xdq-ZtbnCXGbU9Z-21" value="实时确诊数/累计确诊数" style="rounded=1;whiteSpace=wrap;html=1;fontSize=14;fillColor=#f5f5f5;fontColor=#333333;strokeColor=#666666;fontStyle=1" parent="1" vertex="1">
          <mxGeometry x="414" y="680" width="156" height="30" as="geometry" />
        </mxCell>
        <mxCell id="W1u-YwrRw44qgqtMoDbP-3" style="edgeStyle=orthogonalEdgeStyle;rounded=0;orthogonalLoop=1;jettySize=auto;html=1;exitX=1;exitY=0.5;exitDx=0;exitDy=0;entryX=0;entryY=0.5;entryDx=0;entryDy=0;" parent="1" source="5rIF5Xdq-ZtbnCXGbU9Z-22" target="W1u-YwrRw44qgqtMoDbP-1" edge="1">
          <mxGeometry relative="1" as="geometry" />
        </mxCell>
        <mxCell id="5rIF5Xdq-ZtbnCXGbU9Z-22" value="密码修改" style="rounded=1;whiteSpace=wrap;html=1;fontSize=14;fillColor=#f5f5f5;fontColor=#333333;strokeColor=#666666;fontStyle=1" parent="1" vertex="1">
          <mxGeometry x="435" y="230" width="100" height="30" as="geometry" />
        </mxCell>
        <mxCell id="W1u-YwrRw44qgqtMoDbP-1" value="短信验证码" style="rounded=1;whiteSpace=wrap;html=1;fontSize=14;fillColor=#fff2cc;strokeColor=#d6b656;fontStyle=1" parent="1" vertex="1">
          <mxGeometry x="570" y="230" width="100" height="30" as="geometry" />
        </mxCell>
        <mxCell id="W1u-YwrRw44qgqtMoDbP-4" value="Email通知" style="rounded=1;whiteSpace=wrap;html=1;fontSize=14;fillColor=#fff2cc;strokeColor=#d6b656;fontStyle=1" parent="1" vertex="1">
          <mxGeometry x="545" y="500" width="100" height="30" as="geometry" />
        </mxCell>
        <mxCell id="W1u-YwrRw44qgqtMoDbP-6" value="查询/统计" style="rounded=1;whiteSpace=wrap;html=1;fontSize=14;fillColor=#f5f5f5;fontColor=#333333;strokeColor=#666666;fontStyle=1" parent="1" vertex="1">
          <mxGeometry x="414" y="630" width="100" height="30" as="geometry" />
        </mxCell>
        <mxCell id="W1u-YwrRw44qgqtMoDbP-7" value="上传健康码、行程码、核酸报告" style="rounded=1;whiteSpace=wrap;html=1;fontSize=14;fillColor=#e1d5e7;strokeColor=#9673a6;fontStyle=1" parent="1" vertex="1">
          <mxGeometry x="415" y="580" width="235" height="30" as="geometry" />
        </mxCell>
        <mxCell id="W1u-YwrRw44qgqtMoDbP-11" value="班级管理" style="rounded=1;whiteSpace=wrap;html=1;fontSize=14;fillColor=#e1d5e7;strokeColor=#9673a6;fontStyle=1" parent="1" vertex="1">
          <mxGeometry x="415" y="410" width="100" height="30" as="geometry" />
        </mxCell>
        <mxCell id="W1u-YwrRw44qgqtMoDbP-13" value="* 黄色功能为系统亮点功能&lt;br&gt;* 紫色功能为2.0版新增功能" style="rounded=1;whiteSpace=wrap;html=1;fontSize=14;fillColor=#f5f5f5;strokeColor=#666666;fontStyle=1;fontColor=#333333;align=left;" parent="1" vertex="1">
          <mxGeometry x="90" y="720" width="640" height="70" as="geometry" />
        </mxCell>
        <mxCell id="W1u-YwrRw44qgqtMoDbP-14" value="&lt;h1&gt;系统角色&lt;/h1&gt;" style="text;html=1;strokeColor=none;fillColor=none;spacing=5;spacingTop=-20;whiteSpace=wrap;overflow=hidden;rounded=0;" parent="1" vertex="1">
          <mxGeometry x="100" y="60" width="190" height="120" as="geometry" />
        </mxCell>
        <mxCell id="PQOv4d-Mpdv5f0DtzdS1-8" style="edgeStyle=orthogonalEdgeStyle;rounded=0;orthogonalLoop=1;jettySize=auto;html=1;exitX=1;exitY=0.5;exitDx=0;exitDy=0;entryX=0;entryY=0.5;entryDx=0;entryDy=0;" parent="1" source="PQOv4d-Mpdv5f0DtzdS1-4" target="PQOv4d-Mpdv5f0DtzdS1-5" edge="1">
          <mxGeometry relative="1" as="geometry" />
        </mxCell>
        <mxCell id="PQOv4d-Mpdv5f0DtzdS1-4" value="返校管理" style="rounded=1;whiteSpace=wrap;html=1;fontSize=14;fillColor=#dae8fc;strokeColor=#6c8ebf;fontStyle=1" parent="1" vertex="1">
          <mxGeometry x="280" y="460" width="100" height="30" as="geometry" />
        </mxCell>
        <mxCell id="PQOv4d-Mpdv5f0DtzdS1-9" style="edgeStyle=orthogonalEdgeStyle;rounded=0;orthogonalLoop=1;jettySize=auto;html=1;exitX=1;exitY=0.5;exitDx=0;exitDy=0;entryX=0;entryY=0.5;entryDx=0;entryDy=0;" parent="1" source="PQOv4d-Mpdv5f0DtzdS1-5" target="PQOv4d-Mpdv5f0DtzdS1-6" edge="1">
          <mxGeometry relative="1" as="geometry" />
        </mxCell>
        <mxCell id="PQOv4d-Mpdv5f0DtzdS1-5" value="申请/审批" style="rounded=1;whiteSpace=wrap;html=1;fontSize=14;fillColor=#dae8fc;strokeColor=#6c8ebf;fontStyle=1" parent="1" vertex="1">
          <mxGeometry x="415" y="460" width="100" height="30" as="geometry" />
        </mxCell>
        <mxCell id="PQOv4d-Mpdv5f0DtzdS1-6" value="Email通知" style="rounded=1;whiteSpace=wrap;html=1;fontSize=14;fillColor=#fff2cc;strokeColor=#d6b656;fontStyle=1" parent="1" vertex="1">
          <mxGeometry x="545" y="460" width="100" height="30" as="geometry" />
        </mxCell>
      </root>
    </mxGraphModel>
  </diagram>
</mxfile>
